<mxfile host="www.draw.io" modified="2019-12-29T15:58:17.199Z" agent="Mozilla/5.0 (Macintosh; Intel Mac OS X 10_14_6) AppleWebKit/537.36 (KHTML, like Gecko) Chrome/79.0.3945.88 Safari/537.36" etag="vuxP3F3AlDcS2RECWiLQ" version="12.4.7" type="github">
  <diagram id="i-tSD9oWPT3ERHb1kvOe" name="Page-1">
    <mxGraphModel dx="1113" dy="545" grid="1" gridSize="10" guides="1" tooltips="1" connect="1" arrows="1" fold="1" page="1" pageScale="1" pageWidth="850" pageHeight="1100" math="0" shadow="0">
      <root>
        <mxCell id="0"/>
        <mxCell id="1" parent="0"/>
        <mxCell id="crog911Fq6NyPLmG136T-1" value="Add elements from scheduledTimes.json" style="rounded=0;whiteSpace=wrap;html=1;fillColor=#ffffff;gradientColor=none;align=center;verticalAlign=top;fontSize=16;" vertex="1" parent="1">
          <mxGeometry x="120" y="120" width="520" height="120" as="geometry"/>
        </mxCell>
        <mxCell id="_vnFwrZZQ34nLDeKAmVC-1" value="addElementToDOM" style="rounded=1;whiteSpace=wrap;html=1;treeFolding=0;treeMoving=0;resizeWidth=0;gradientColor=none;fillColor=#ffffff;" parent="1" vertex="1">
          <mxGeometry x="480" y="160" width="120" height="40" as="geometry"/>
        </mxCell>
        <mxCell id="crog911Fq6NyPLmG136T-3" value="" style="edgeStyle=orthogonalEdgeStyle;rounded=0;orthogonalLoop=1;jettySize=auto;html=1;fontSize=16;" edge="1" parent="1" source="_vnFwrZZQ34nLDeKAmVC-3" target="_vnFwrZZQ34nLDeKAmVC-5">
          <mxGeometry relative="1" as="geometry"/>
        </mxCell>
        <mxCell id="_vnFwrZZQ34nLDeKAmVC-3" value="getElementFromFile" style="rounded=1;whiteSpace=wrap;html=1;treeFolding=0;treeMoving=0;resizeWidth=0;gradientColor=none;fillColor=#ffffff;" parent="1" vertex="1">
          <mxGeometry x="160" y="160" width="120" height="40" as="geometry"/>
        </mxCell>
        <mxCell id="crog911Fq6NyPLmG136T-4" value="" style="edgeStyle=orthogonalEdgeStyle;rounded=0;orthogonalLoop=1;jettySize=auto;html=1;fontSize=16;" edge="1" parent="1" source="_vnFwrZZQ34nLDeKAmVC-5" target="_vnFwrZZQ34nLDeKAmVC-1">
          <mxGeometry relative="1" as="geometry"/>
        </mxCell>
        <mxCell id="_vnFwrZZQ34nLDeKAmVC-5" value="delElementFromDOM" style="rounded=1;whiteSpace=wrap;html=1;treeFolding=0;treeMoving=0;resizeWidth=0;gradientColor=none;fillColor=#ffffff;" parent="1" vertex="1">
          <mxGeometry x="320" y="160" width="120" height="40" as="geometry"/>
        </mxCell>
      </root>
    </mxGraphModel>
  </diagram>
</mxfile>
